<?xml version="1.0" encoding="UTF-8" standalone="no"?><!DOCTYPE svg PUBLIC "-//W3C//DTD SVG 1.1//EN" "http://www.w3.org/Graphics/SVG/1.1/DTD/svg11.dtd"><svg width="100%" height="100%" viewBox="0 0 300 69" version="1.1" xmlns="http://www.w3.org/2000/svg" xmlns:xlink="http://www.w3.org/1999/xlink" xml:space="preserve" style="fill-rule:evenodd;clip-rule:evenodd;stroke-linejoin:round;stroke-miterlimit:1.41421;"><g><g><path d="M84.183,45.591c1.068,-11.406 -4.72,-17.136 -13.989,-17.136c-8.991,0 -14.722,6.067 -14.722,14.495c0,8.878 5.675,14.777 15.227,14.777c4.214,0 8.989,-1.461 11.911,-4.495l-4.383,-4.325c-1.573,1.629 -4.887,2.584 -7.416,2.584c-4.832,0 -7.81,-2.472 -8.26,-5.9l21.632,0Zm-21.519,-5.675c1.011,-3.596 4.045,-5.394 7.754,-5.394c3.933,0 6.743,1.798 7.192,5.394l-14.946,0Z" style="fill:#000;fill-rule:nonzero;"/><path d="M101.096,38.68l-5.45,-9.383l-8.203,0l0,0.224l9.102,13.429l-9.664,13.878l0,0.169l8.203,0l6.012,-9.271l6.011,9.271l8.205,0l0,-0.169l-9.665,-13.878l9.102,-13.429l0,-0.224l-8.203,0l-5.45,9.383Z" style="fill:#000;fill-rule:nonzero;"/><path d="M140.707,32.163c-3.202,-2.81 -6.461,-3.653 -10.787,-3.653c-5.057,0 -11.687,2.249 -11.687,8.654c0,6.292 6.236,8.203 11.462,8.597c3.933,0.224 5.506,1.011 5.506,2.921c0,2.023 -2.415,3.371 -5.001,3.314c-3.09,-0.055 -7.584,-1.685 -9.551,-3.876l-3.372,4.888c4.046,4.214 8.428,4.944 12.811,4.944c7.922,0 11.912,-4.213 11.912,-9.102c0,-7.361 -6.63,-8.54 -11.856,-8.877c-3.54,-0.225 -5.169,-1.236 -5.169,-3.034c0,-1.742 1.798,-2.754 5.057,-2.754c2.641,0 4.889,0.619 6.854,2.472l3.821,-4.494Z" style="fill:#000;fill-rule:nonzero;"/><path d="M161.721,51.042c-4.664,0 -7.866,-3.54 -7.866,-7.867c0,-4.326 2.922,-7.866 7.866,-7.866c4.944,0 7.866,3.54 7.866,7.866c0,4.327 -3.202,7.867 -7.866,7.867Zm-8.484,17.529l0,-14.832c1.967,3.034 6.292,3.933 9.215,3.933c8.877,0 13.991,-6.405 13.991,-14.497c0,-8.146 -5.676,-14.496 -14.216,-14.496c-3.147,0 -6.855,1.349 -8.99,4.439l-0.45,-3.821l-6.405,0l0,39.274l6.855,0Z" style="fill:#000;fill-rule:nonzero;"/><path d="M181.499,17.667l0,39.33l6.855,0l0,-14.159c0,-4.158 2.809,-7.585 6.854,-7.585c3.653,0 6.293,2.135 6.293,7.192l0,14.552l6.856,0l0,-14.609c0,-8.146 -3.485,-13.484 -11.351,-13.484c-3.146,0 -6.18,0.956 -8.652,4.158l0,-15.395l-6.855,0Z" style="fill:#000;fill-rule:nonzero;"/><path d="M241.619,45.591c1.067,-11.406 -4.721,-17.136 -13.99,-17.136c-8.991,0 -14.722,6.067 -14.722,14.495c0,8.878 5.675,14.777 15.227,14.777c4.214,0 8.989,-1.461 11.912,-4.495l-4.384,-4.325c-1.573,1.629 -4.887,2.584 -7.416,2.584c-4.832,0 -7.81,-2.472 -8.26,-5.9l21.633,0Zm-21.52,-5.675c1.011,-3.596 4.046,-5.394 7.754,-5.394c3.933,0 6.742,1.798 7.192,5.394l-14.946,0Z" style="fill:#000;fill-rule:nonzero;"/><path d="M246.9,29.297l0,27.7l6.855,0l0,-14.609c0,-5.112 3.315,-7.022 6.911,-7.022c2.248,0 3.539,0.617 4.944,1.798l3.091,-5.956c-1.517,-1.517 -4.271,-2.641 -7.136,-2.641c-2.809,0 -5.675,0.505 -7.81,3.933l-0.505,-3.203l-6.35,0Z" style="fill:#000;fill-rule:nonzero;"/><path d="M298.76,45.591c1.069,-11.406 -4.719,-17.136 -13.99,-17.136c-8.99,0 -14.72,6.067 -14.72,14.495c0,8.878 5.674,14.777 15.226,14.777c4.213,0 8.99,-1.461 11.911,-4.495l-4.382,-4.325c-1.573,1.629 -4.889,2.584 -7.416,2.584c-4.834,0 -7.811,-2.472 -8.26,-5.9l21.631,0Zm-21.519,-5.675c1.012,-3.596 4.045,-5.394 7.754,-5.394c3.933,0 6.742,1.798 7.191,5.394l-14.945,0Z" style="fill:#000;fill-rule:nonzero;"/></g><path d="M15.815,0c-8.135,0 -14.702,6.553 -14.702,14.669l0,43.282l29.372,0l0,-43.282c0,-8.116 -6.534,-14.669 -14.67,-14.669Zm35.735,57.951l-18.932,0l0,-29.735c11.344,1.033 20.221,10.556 20.221,22.17c0,2.653 -0.438,5.205 -1.289,7.565Z" style="fill:#000;"/></g></svg>